<svg width="1024" height="1024" viewBox="0 0 64 64" fill="none" xmlns="http://www.w3.org/2000/svg">
<rect width="64" height="64" rx="14" fill="#165BC3"/>
<path d="M32.5 3C48.7924 3 62 16.2076 62 32.5C62 48.7924 48.7924 62 32.5 62C16.2076 62 3 48.7924 3 32.5C3 16.2076 16.2076 3 32.5 3ZM32.5176 17.9111C29.6647 17.9117 28.2117 24.9817 26.8301 31.8359C26.6865 32.5358 26.543 33.2539 26.3994 33.9717C26.3455 34.2587 26.0937 34.4561 25.8066 34.4561H16.0996C15.705 34.4561 15.3994 34.8505 15.5068 35.2451C16.9065 40.4309 18.3422 45.7783 21.1953 45.7783C23.6715 45.7782 25.053 40.5569 26.2373 35.0303C26.2911 34.7432 26.543 34.5459 26.8301 34.5459H38.1699C38.457 34.5459 38.7089 34.7432 38.7627 35.0303C39.929 40.539 41.3105 45.7782 43.8047 45.7783C46.6578 45.7783 48.1115 40.4309 49.4932 35.2451C49.6006 34.8505 49.313 34.4736 48.9004 34.4736H39.2295C38.9425 34.4736 38.6906 34.2587 38.6367 33.9717C38.4932 33.2539 38.3496 32.5358 38.2061 31.8359C36.8064 24.9993 35.3707 17.9111 32.5176 17.9111Z" fill="white"/>
</svg>
